<?xml version="1.0" encoding="UTF-8"?>
<svg version="1.1" viewBox="0 0 1600 768"  xmlns="http://www.w3.org/2000/svg">
<path transform="translate(531,469)" d="m0 0h15c1.28 3.85 0.446 4.88-1.12 8.56-5.46 13.7-8.58 27.7-10.6 42.2-0.28 1.99-0.604 3.97-0.934 5.95-4.3 27.1-1.32 57.2 9.93 82.4 0.699 1.85 0.699 1.85 0.699 4.85h2c3 6.62 3 6.62 3 10h2c0.495 2.48 0.495 2.48 1 5h2c3 4.38 3 4.38 3 7h2c1.03 1.65 2.02 3.32 3 5 0.557 0.557 1.11 1.11 1.69 1.69 0.433 0.433 0.866 0.866 1.31 1.31v2h2v2h2c1.62 1.38 1.62 1.38 3 3v2c0.619 0.309 1.24 0.619 1.88 0.938l4.12 2.06v2c0.557 0.247 1.11 0.495 1.69 0.75 2.74 1.48 4.99 3.18 7.31 5.25v2h3v2c0.763 0.268 1.53 0.536 2.31 0.812 2.61 1.15 3.76 2.17 5.69 4.19 0.99 0.33 1.98 0.66 3 1v2c0.695 0.266 1.39 0.531 2.11 0.805 3.15 1.3 6.16 2.78 9.21 4.32 1.07 0.539 2.14 1.08 3.24 1.63 0.808 0.41 1.62 0.82 2.45 1.24v2c0.825 0.0825 1.65 0.165 2.5 0.25 2.94 0.631 4.72 1.26 7.31 2.62 7.48 3.91 15.3 5.71 23.6 7.48 2.62 0.648 2.62 0.648 3.62 1.65 24.6 4.94 53.4 5.61 78 0l1-1c6.59-1.51 13.3-2.34 20-3v-2c0.764-0.208 1.53-0.415 2.32-0.629 7.32-2.11 14-4.73 20.8-8.08 4.67-2.29 4.67-2.29 6.85-2.29v-2c5.75-3 5.75-3 8-3v-2c1.65-0.33 3.3-0.66 5-1v-2h3v-2c1.68-1.51 1.68-1.51 3.88-3.12 0.719-0.539 1.44-1.08 2.18-1.63 1.95-1.24 1.95-1.24 3.95-1.24v-2c5.48-5 5.48-5 8-5v-2c1.57-1.52 1.57-1.52 3.69-3.25 2.67-2.25 5.02-4.45 7.19-7.19 0.701-0.846 1.4-1.69 2.12-2.56h2c0.0518-2.87 0.0518-2.87-1-6-2.23-1.77-4.4-2.77-7-4v-2h-2v-2c-0.701-0.206-1.4-0.413-2.12-0.625-3.68-1.76-6.35-4.18-8.88-7.38v-2h-2c-3-3.46-3-3.46-3-6h-2c-2.04-2.91-3-4.4-3-8h-2c-9.22-19.4-15.4-37-15.2-58.6-0.00773-1.14-0.0155-2.27-0.0234-3.45 0.0231-10.1 1.21-19 5.19-28.3 1.97-4.78 3.5-9.72 5.09-14.6h2c0.124-0.557 0.247-1.11 0.375-1.69 0.685-2.53 1.62-4.89 2.62-7.31h2c0.0941-0.552 0.188-1.1 0.285-1.67 0.906-2.95 2.38-5.06 4.15-7.58 0.617-0.892 1.23-1.78 1.87-2.7 0.558-0.675 1.12-1.35 1.69-2.05h2c0.33-0.99 0.66-1.98 1-3 3.23-2.15 4.28-2.2 8-2-2.63 5.47-5.53 10.6-8.73 15.8-1.4 2.25-1.4 2.25-2.27 5.2h-2c-0.116 0.669-0.232 1.34-0.352 2.03-0.783 3.59-1.89 7.04-3.02 10.5-7.04 22.3-10.6 47.8-2.62 70.4 0.33 0.33 0.66 0.66 1 1 0.0406 1.67 0.0427 3.33 0 5h2c3 6.62 3 6.62 3 10h2c1.44 1.83 1.44 1.83 3 4.25 0.516 0.789 1.03 1.58 1.56 2.39 1.27 2.08 2.39 4.16 3.44 6.36h2c1.62 1.38 1.62 1.38 3 3v2c0.99 0.33 1.98 0.66 3 1v2h2v2c0.804 0.268 1.61 0.536 2.44 0.812 0.846 0.392 1.69 0.784 2.56 1.19 0.33 0.99 0.66 1.98 1 3 2.39 1.11 2.39 1.11 5 2 0.99 0.66 1.98 1.32 3 2 3.41-3.09 4.56-6.66 6-10.9 0.261-0.754 0.521-1.51 0.79-2.28 2.1-6.17 3.81-12.4 5.21-18.8h2c-0.0412-1.01-0.0825-2.02-0.125-3.06 0.125-3.94 0.125-3.94 1.06-7.19 1.19-4.2 1.53-8.15 1.82-12.5 0.246-2.26 0.246-2.26 1.25-3.26 0.101-2.42 0.14-4.82 0.133-7.25 9.57e-4 -0.726 0.00191-1.45 0.0029-2.2 6.82e-4 -1.54-0.00117-3.08-0.00534-4.62-0.00534-2.36-5.89e-5 -4.72 0.00635-7.08-6.61e-4 -1.49-0.00194-2.99-0.00391-4.48 0.00304-1.06 0.00304-1.06 0.00613-2.15 0.0377-3.74 0.0377-3.74-1.14-7.23-0.247-2-0.472-4-0.688-6-1.33-9.8-4.6-19-8.17-28.2-2.14-5.51-2.14-5.51-2.14-8.79h-2c-0.247-0.846-0.495-1.69-0.75-2.56-0.977-2.69-1.93-4.71-3.38-7.12-1.88-3.31-1.88-3.31-1.88-6.31 8.54-0.139 17.1-0.246 25.6-0.311 3.96-0.0313 7.93-0.0738 11.9-0.142 3.83-0.0652 7.65-0.101 11.5-0.117 1.46-0.0111 2.92-0.0327 4.38-0.0651 2.05-0.0436 4.09-0.0496 6.13-0.0468 1.75-0.02 1.75-0.02 3.53-0.0404 2.99 0.722 2.99 0.722 5.34 3.63 1.32 2.49 2.26 4.43 2.84 7.15 0.238 1.07 0.238 1.07 0.48 2.17 0.222 1.09 0.222 1.09 0.449 2.21 0.313 1.46 0.629 2.91 0.945 4.37 0.151 0.704 0.301 1.41 0.456 2.13 0.45 1.96 1 3.89 1.56 5.82 0.739 2.61 1.23 4.93 1.48 7.61 0.0354 3.43 0.0354 3.43 1.44 4.62 4.08 24.2 4.72 48.9 0 73-0.33 0.33-0.66 0.66-1 1-0.281 1.52-0.523 3.04-0.75 4.56-2.22 12.6-6.67 24-12.2 35.4-1.14 2.41-2.26 4.83-3.38 7.25-0.754 1.62-0.754 1.62-1.52 3.27-1.17 2.18-1.17 2.18-1.1 3.48 16.5 0.766 35.7-4.3 50.2-12.1 1.92-0.913 3.75-1.42 5.82-1.87v-2c2.91-2.04 4.4-3 8-3v-2c1.86-1.59 1.86-1.59 4.31-3.38 2.51-1.83 4.49-3.36 6.36-5.85 0.44-0.585 0.879-1.17 1.33-1.77h2c0.371-0.804 0.371-0.804 0.75-1.62 1.56-2.96 3.28-5.67 5.25-8.38h2c0.0825-0.681 0.165-1.36 0.25-2.06 0.776-3.04 2.1-5.25 3.7-7.91 1.6-3.09 2.46-6.33 3.39-9.67 0.521-1.87 1.14-3.71 1.78-5.54 1.01-3.25 1.41-6.45 1.88-9.81 0.33-0.33 0.66-0.66 1-1 1.72-17.6 0.165-32.3-5.88-48.9-1.33-3.7-2.5-7.25-3.12-11.1h-2c-0.33-1.65-0.66-3.3-1-5h-2c-3-5.75-3-5.75-3-8h-2c-3-4.38-3-4.38-3-7-0.99-0.33-1.98-0.66-3-1v-2c-0.639-0.248-1.28-0.495-1.94-0.75-2.06-1.25-2.06-1.25-2.69-3.33-0.122-0.634-0.245-1.27-0.371-1.92 6.35-0.076 12.7-0.129 19.1-0.165 2.16-0.0151 4.32-0.0356 6.49-0.0615 3.11-0.0363 6.21-0.0534 9.32-0.0667 0.969-0.0155 1.94-0.031 2.94-0.0469 1.35-3.4e-4 1.35-3.4e-4 2.73-6.87e-4 0.793-0.00666 1.59-0.0133 2.4-0.0202 2.62 0.458 3.41 1.31 5.07 3.36 2 3 2 3 2 7h2c0.387 0.906 0.773 1.81 1.17 2.75 0.25 0.585 0.501 1.17 0.759 1.77 0.55 1.29 1.1 2.58 1.65 3.86 1.48 3.46 3.01 6.89 4.61 10.3 5.8 13 7.16 27.2 7.07 41.3-0.0107 2.09-2.44e-5 4.18 0.0127 6.27 0.0141 14.2-2.97 25.7-8.27 38.8-0.667 1.67-1.33 3.33-2 5h-2c-0.124 0.743-0.247 1.49-0.375 2.25-0.58 2.55-1.36 4.48-2.62 6.75h-2c-0.33 1.32-0.66 2.64-1 4h-2v3h-2c-0.371 0.804-0.371 0.804-0.75 1.62-2.98 5.66-6.37 9.61-11.2 13.7-2.03 1.68-2.03 1.68-3.84 3.59-2.74 2.69-5.69 5.02-8.72 7.37-0.577 0.459-1.15 0.918-1.75 1.39-4.33 3.36-4.33 3.36-7.69 3.36v2c-6.62 3-6.62 3-10 3v2c-0.88 0.266-1.76 0.531-2.67 0.805-1.74 0.53-1.74 0.53-3.52 1.07-1.72 0.522-1.72 0.522-3.48 1.05-3.22 0.981-3.22 0.981-5.8 2.11-5.25 1.99-10.9 2.67-16.4 3.6-1.87 0.316-3.73 0.653-5.59 0.994-6.89 1.08-13.5 1.4-20.4 1.24-0.71-0.0134-1.42-0.0269-2.15-0.0407-3.62-0.0699-7.23-0.177-10.8-0.347-7.02-0.452-7.02-0.452-13.3 2.09-1.64 1.87-1.64 1.87-2.81 3.9-0.319 0.502-0.638 1-0.967 1.52h-2c-0.33 0.99-0.66 1.98-1 3h-2c-0.268 0.763-0.536 1.53-0.812 2.31-1.14 2.58-2 3.96-4.19 5.69h-2v2c-1.38 1.62-1.38 1.62-3 3h-2v2c-1.68 1.52-3.42 2.97-5.19 4.38-0.963 0.771-1.93 1.54-2.92 2.34-0.955 0.755-1.91 1.51-2.89 2.29-0.904 0.755-1.81 1.51-2.74 2.29-2.26 1.71-2.26 1.71-4.26 1.71v2c-5.41 4-5.41 4-8 4v2c-1.25 0.615-1.25 0.615-2.52 1.24-1.09 0.539-2.17 1.08-3.29 1.63-1.62 0.801-1.62 0.801-3.27 1.62-3 1.48-3 1.48-5.92 3.51h-3v2c-6.63 3.19-13.3 5.88-20.3 8.11-2.71 0.852-2.71 0.852-5.21 1.91-2.79 1.08-5.55 1.79-8.46 2.48-4.1 0.997-8.07 2.14-12.1 3.5-34.7 9.62-76.9 8.54-112 2-0.33-0.33-0.66-0.66-1-1-1.49-0.282-3-0.524-4.5-0.75-10.5-1.83-21.2-4.73-30.7-9.45-1.89-0.856-3.74-1.35-5.76-1.8v-2c-1.05-0.186-1.05-0.186-2.12-0.375-3.05-0.663-5.93-1.6-8.88-2.62v-2c-0.715-0.112-1.43-0.224-2.17-0.34-3.02-0.705-5.4-1.79-8.14-3.22-0.883-0.455-1.77-0.91-2.68-1.38-0.664-0.349-1.33-0.699-2.01-1.06v-2c-1.03-0.356-1.03-0.356-2.07-0.719-3.53-1.55-6.59-3.59-9.74-5.78-0.597-0.403-1.19-0.807-1.81-1.22-1.5-1.04-2.94-2.15-4.38-3.28v-2c-0.577-0.268-1.15-0.536-1.75-0.812-2.31-1.22-4.27-2.49-6.25-4.19v-2c-0.536-0.206-1.07-0.413-1.62-0.625-3.29-1.91-5.97-4.42-8.38-7.38v-2c-0.99-0.33-1.98-0.66-3-1-1.19-2.56-1.19-2.56-2-5h-2c-2.8-2.16-4.17-5.04-5.88-8.07-2.12-3.66-4.5-7.16-6.85-10.7-6.27-9.57-6.27-9.57-6.27-15.2h-2c-0.364-1.02-0.364-1.02-0.734-2.05-3.83-10.7-3.83-10.7-8.25-21.1-1.51-4.27-2.24-8.66-3.07-13.1-0.342-1.82-0.686-3.64-1.04-5.45-0.224-1.2-0.224-1.2-0.453-2.43-0.277-1.87-0.277-1.87-1.45-2.87-0.686-3.91-1.09-7.87-1.56-11.8-0.139-1.09-0.277-2.17-0.42-3.29-1.43-11.9-1.11-23.1 0.295-35 0.177-1.64 0.177-1.64 0.357-3.31 0.728-6.28 1.88-12.2 3.65-18.3 0.772-2.66 1.36-5.32 1.87-8.04 0.159-0.829 0.317-1.66 0.48-2.51 0.11-0.594 0.219-1.19 0.332-1.8h2c0.124-0.825 0.247-1.65 0.375-2.5 0.696-3.9 1.63-7.67 2.62-11.5h2c0.124-1.03 0.247-2.06 0.375-3.12 0.564-3.5 1.41-6.56 2.62-9.88h2c0.33-0.99 0.66-1.98 1-3z"/>
<path transform="translate(722 31.9)" d="m0 0c1.27-0.00129 2.53-0.00258 3.83-0.00391 1.31 0.00387 2.63 0.00773 3.98 0.0117 1.31-0.00387 2.62-0.00773 3.97-0.0117 1.9 0.00193 1.9 0.00193 3.84 0.00391 1.15 0.00113 2.3 0.00226 3.49 0.00342 3.18 0.126 6.13 0.584 9.26 1.13 2.11 0.171 4.22 0.313 6.33 0.43 13.4 0.8 26.5 1.83 39.7 4.57 4.73 0.927 9.36 1.18 14.2 1.25 1.57 0.0329 3.13 0.0661 4.7 0.0996 2.45 0.0476 4.9 0.0922 7.35 0.131 2.38 0.0396 4.76 0.0911 7.13 0.144 1.1 0.0126 1.1 0.0126 2.23 0.0255 5.18 0.127 5.18 0.127 7.41 2.35 0.272 2.76 0.272 2.76 0.303 6.32 0.00844 0.649 0.0169 1.3 0.0256 1.97 0.0259 2.16 0.038 4.32 0.0504 6.48 0.0162 1.52 0.0334 3.03 0.0515 4.55 0.0458 4.01 0.0805 8.03 0.112 12 0.0578 7.11 0.134 14.2 0.211 21.3 0.00791 0.763 0.0158 1.53 0.024 2.31 0.113 10.6 0.394 21.2 1.01 31.8 0.342 6.04 0.301 12.1 0.209 18.1-1.65 0.33-3.3 0.66-5 1-2.82-4.05-3.75-7.89-4.5-12.7-1.85-10.7-4.56-20.8-10.2-30.2-1.25-2.12-1.25-2.12-1.25-5.12h-2c-1.51-1.68-1.51-1.68-3.12-3.88-0.539-0.719-1.08-1.44-1.63-2.18-1.24-1.95-1.24-1.95-1.24-3.95h-2v-2c-0.99-0.33-1.98-0.66-3-1v-2h-2v-2c-0.544-0.251-1.09-0.503-1.65-0.762-2.82-1.48-5.35-3.24-7.98-5.05-8.34-5.58-16.4-9.41-26-12.4-2.37-0.797-2.37-0.797-3.37-1.8-2.35-0.53-4.69-1-7.06-1.44-0.714-0.131-1.43-0.262-2.17-0.398-19-4.04-19-4.04-37.8-2.16-1.85 0.191-3.7 0.378-5.55 0.544-17.4 1.63-33.5 7.98-47.5 18.5h-2v2c-1.65 0.66-3.3 1.32-5 2v2c-1.5 1.44-1.5 1.44-3.44 3-2.71 2.15-2.71 2.15-4.56 5h-2c-0.464 0.928-0.464 0.928-0.938 1.88l-2.06 4.12h-2l-0.805 2.11c-1.3 3.15-2.78 6.16-4.32 9.21-0.539 1.07-1.08 2.14-1.63 3.24-0.41 0.808-0.82 1.62-1.24 2.45h-2c-0.188 1.08-0.188 1.08-0.379 2.17-0.82 3.74-2.2 7.16-3.59 10.7-8.21 24.7-6.26 51.2 4.9 74.5 2.35 4.52 5 8.74 7.96 12.9 1.1 1.74 1.1 1.74 1.1 3.74h2c1.44 1.5 1.44 1.5 3 3.44 2.15 2.71 2.15 2.71 5 4.56v2h2c1.62 1.37 1.62 1.37 3 3v2c0.99 0.33 1.98 0.66 3 1v2c0.66 0.186 1.32 0.371 2 0.562 3.67 1.76 6.25 4.14 9.23 6.88 1.7 1.63 1.7 1.63 3.77 2.56v2c1.08 0.371 1.08 0.371 2.19 0.75 3.09 1.37 5.32 2.97 7.81 5.25v2h3v2c0.536 0.248 1.07 0.495 1.62 0.75 2.96 1.56 5.67 3.28 8.38 5.25v2c0.562 0.268 1.12 0.536 1.7 0.812 2.45 1.27 4.74 2.68 7.05 4.19 1.2 0.773 1.2 0.773 2.42 1.56 0.603 0.474 1.21 0.949 1.83 1.44v2c0.804 0.371 0.804 0.371 1.62 0.75 2.96 1.56 5.67 3.28 8.38 5.25v2c0.66 0.206 1.32 0.413 2 0.625 4.07 1.87 7.69 4.35 11 7.38v2c0.99 0.33 1.98 0.66 3 1v2c0.701 0.227 1.4 0.454 2.12 0.688 3.49 1.59 5.96 3.83 8.88 6.31 2.22 1.28 2.22 1.28 4 2v2h2v2c-22.9 0.562-45.8 1.1-68.7 1.23-1.79 0.0118-3.59 0.0288-5.38 0.0513-17.8 0.212-17.8 0.212-24.9-3.28l-1-3c-1.65-0.696-3.32-1.36-5-2-1.82-1.27-3.59-2.61-5.31-4-0.883-0.701-1.77-1.4-2.68-2.12-0.664-0.619-1.33-1.24-2.01-1.88v-2c-0.722-0.248-1.44-0.495-2.19-0.75-3.09-1.37-5.32-2.97-7.81-5.25v-2h-3v-2c-0.99-0.33-1.98-0.66-3-1v-2c-0.549-0.245-1.1-0.49-1.66-0.742-7.32-3.94-13.6-9.85-18.2-16.7-1.06-1.69-1.06-1.69-3.12-2.53v-3h-2c-3-4.38-3-4.38-3-7h-2c-1.36-2.66-2.68-5.33-4-8-0.544-1.07-1.09-2.14-1.65-3.24-3.42-6.88-6.16-13.7-8.23-21.1l-0.615-2.19c-1.19-4.51-1.88-8.92-2.27-13.6-0.15-1.95-0.15-1.95-1.24-3.86-0.215-4.51-0.186-9.02-0.185-13.5-0.00215-2.23-0.0202-4.46-0.0393-6.69-0.0348-8.78 0.589-17.1 2.22-25.8 0.237-1.4 0.474-2.8 0.711-4.2 1.23-6.48 2.68-12.5 5.32-18.5 0.982-2.29 1.77-4.59 2.54-6.96 1.26-3.89 2.77-7.58 4.44-11.3h2c0.117-0.737 0.235-1.47 0.355-2.23 1.88-8.05 8.24-15.2 12.9-21.9 0.531-0.771 1.06-1.54 1.61-2.34 0.505-0.716 1.01-1.43 1.53-2.17 0.681-0.973 0.681-0.973 1.38-1.97 0.407-0.463 0.814-0.925 1.23-1.4h2c0.247-0.557 0.495-1.11 0.75-1.69 2.6-4.81 6.12-8.25 10.4-11.6 0.869-0.697 1.74-1.39 2.63-2.11 2.24-1.57 2.24-1.57 4.24-1.57v-2c5.41-4 5.41-4 8-4v-2h3v-2c5.62-3 5.62-3 9-3v-2c2.97-0.495 2.97-0.495 6-1v-2c0.773-0.254 1.55-0.508 2.34-0.77 6.93-2.28 6.93-2.28 13.8-4.79 8.2-3.1 15.9-4.92 24.7-5.56 1.82-0.146 3.64-0.295 5.46-0.445 1.18-0.0892 1.18-0.0892 2.39-0.18 2.36-0.209 2.36-0.209 4.72-0.768 3.12-0.574 6.07-0.611 9.24-0.614z"/>
<path transform="translate(959,233)" d="m0 0c1.66 0.114 3.33 0.178 5 0.211 0.969 0.0284 1.94 0.0567 2.94 0.0859 2.04 0.0521 4.08 0.0964 6.12 0.133 0.969 0.0309 1.94 0.0619 2.94 0.0938 1.33 0.0297 1.33 0.0297 2.69 0.0601 2.86 0.516 3.58 1.1 5.31 3.42 0.399 2.68 0.399 2.68 0.432 5.94 0.0198 1.22 0.0396 2.44 0.06 3.7 0.00958 1.98 0.00958 1.98 0.0194 4 0.0168 1.36 0.035 2.73 0.0544 4.09 0.0475 3.59 0.0773 7.17 0.103 10.8 0.0298 3.66 0.0763 7.32 0.121 11 0.0861 7.18 0.153 14.4 0.209 21.5h-4c-1.59-2.84-2.22-4.95-2.38-8.19-0.656-7.11-3.98-12.8-7.62-18.8v-2h-2c-0.402-1.21-0.402-1.21-0.812-2.44-0.588-1.27-0.588-1.27-1.19-2.56-0.99-0.33-1.98-0.66-3-1v-2c-0.722-0.268-1.44-0.536-2.19-0.812-2.81-1.19-5.3-2.46-7.81-4.19v-2c-0.726-0.125-1.45-0.25-2.2-0.379-3.55-0.786-6.68-2.16-10-3.59-8.37-3.1-15.9-3.31-24.7-3.22-1.86 9.67e-4 -1.86 9.67e-4 -3.77 0.00195-5.52-0.51-5.52-0.51-10.3 1.19-1.46 0.249-2.91 0.473-4.38 0.688-5.44 1.01-9.65 3.26-14.4 6.07-2.25 1.24-2.25 1.24-4.25 1.24v2c-1.44 0.938-2.88 1.87-4.34 2.78-1.8 1.32-3.03 2.72-4.41 4.47-1.11 1.36-1.11 1.36-2.25 2.75h-2c-0.28 0.574-0.559 1.15-0.848 1.74-1.12 2.2-2.34 4.32-3.59 6.45-2.5 4.46-4.09 8.94-5.56 13.8-0.344 0.917-0.688 1.83-1.04 2.78-1.1 3.71-1.4 7.26-1.58 11.1-0.124 2.35-0.247 4.7-0.375 7.12h-28c0.33-2.97 0.66-5.94 1-9 0.124-1.15 0.247-2.31 0.375-3.5 0.775-4.34 2.13-8.36 3.62-12.5h2c0.0619-0.784 0.124-1.57 0.188-2.38 1.68-7.51 6-15.6 10.8-21.6h2c0.268-0.577 0.536-1.15 0.812-1.75 1.22-2.31 2.49-4.27 4.19-6.25h2c0.33-0.99 0.66-1.98 1-3 2.23-2.11 4.77-3.83 7.25-5.62 0.669-0.503 1.34-1.01 2.03-1.52 3.51-2.56 6.26-4.49 10.7-4.85v-2c0.927-0.277 1.85-0.554 2.81-0.84 1.2-0.362 2.4-0.724 3.63-1.1 1.79-0.539 1.79-0.539 3.62-1.09 2.8-0.682 2.8-0.682 3.94-1.97 21.4-3.03 50.4-5.87 71 1z"/>
<path transform="translate(524,347)" d="m0 0c1.37 0.259 1.37 0.259 2.77 0.523 2.42 0.467 4.82 0.959 7.23 1.48v2c0.557 0.227 1.11 0.454 1.69 0.688 6.55 3.72 10.9 10.3 13.3 17.3 0.429 3.74 0.37 7.49 0.375 11.2 0.0245 0.999 0.049 2 0.0742 3.03 0.0364 9.27-2.82 16.4-8.45 23.7h-2v2c-9.49 7.88-18.8 8.95-31 8-6.6-1.12-11.3-3.19-16-8v-2h-2c-6.49-10-9.37-19.9-6.94-31.8 1.58-5.81 3.96-11 6.94-16.2h2c0.262-0.597 0.523-1.19 0.793-1.81 2.67-4.86 7.18-7.48 12.3-9.28 6.61-1.69 12.2-2.31 18.9-0.914zm-14 11v2c-1.08 0.124-1.08 0.124-2.19 0.25-3.42 0.913-5.28 2.29-7.81 4.75v3h-2c-3.21 8.8-4.95 17.2-1.06 26.1 0.667 1.32 1.35 2.64 2.06 3.94 0.33 0.66 0.66 1.32 1 2h2c0.33 0.99 0.66 1.98 1 3 6.81 3.69 14.3 4.02 21.6 2 6.47-3.84 10.3-8.44 12.4-15.7 1.74-8.61 0.823-16.9-3.81-24.4-2.51-3.65-5.13-5.27-9.25-6.88-3.66-0.36-3.66-0.36-7.38-0.188-1.25 0.0271-2.49 0.0541-3.77 0.082-1.41 0.0522-1.41 0.0522-2.85 0.105z"/>
<path transform="translate(341 347)" d="m0 0c0.908 0.00258 1.81 0.00516 2.75 0.00781 1.36-0.00387 1.36-0.00387 2.75-0.00781 2.25 0.133 2.25 0.133 3.25 1.13 0.0749 1.48 0.0832 2.96 0.0625 4.45-0.00773 0.913-0.0155 1.83-0.0234 2.77-0.0257 1.92-0.0518 3.84-0.0781 5.76-0.00773 0.92-0.0155 1.84-0.0234 2.79-0.0116 0.837-0.0232 1.67-0.0352 2.54 0.117 3.25 0.637 6.48 1.1 9.71h32c0.33-9.24 0.66-18.5 1-28 3.63-0.33 7.26-0.66 11-1 1 1 1 1 1.12 3.66-0.00222 1.19-0.00444 2.38-0.00673 3.6 1.46e-4 0.654 2.92e-4 1.31 4.43e-4 1.98-6.99e-4 2.17-0.00849 4.34-0.0163 6.51-0.00186 1.5-0.00329 3-0.00429 4.5-0.00383 3.96-0.0137 7.91-0.0247 11.9-0.0102 4.04-0.0148 8.07-0.0198 12.1-0.0107 7.92-0.0278 15.8-0.0488 23.8-4.59 0.809-7.33 0.934-12 0-0.33-8.91-0.66-17.8-1-27-4.24-0.166-8.47-0.328-12.7-0.482-1.44-0.0534-2.88-0.109-4.32-0.166-2.07-0.0819-4.14-0.157-6.21-0.231-1.25-0.0471-2.49-0.0943-3.78-0.143-2.91-0.198-2.91-0.198-4.98 1.02-0.0251 0.813-0.0501 1.63-0.0759 2.46-0.116 3.66-0.238 7.32-0.362 11-0.059 1.92-0.059 1.92-0.119 3.88-0.0419 1.21-0.0838 2.43-0.127 3.68-0.055 1.69-0.055 1.69-0.111 3.41-0.205 2.59-0.205 2.59-1.21 3.59-7.46 0.361-7.46 0.361-11-2-0.367-2.74-0.367-2.74-0.356-6.27-3e-3 -1.32-6e-3 -2.64-0.00909-3.99 0.012-1.44 0.0245-2.89 0.0374-4.33 0.00306-1.47 0.00493-2.95 0.00568-4.42 0.00461-3.09 0.019-6.18 0.0412-9.27 0.0283-3.97 0.0392-7.94 0.0437-11.9 0.00415-3.04 0.014-6.09 0.0259-9.13 0.00571-1.46 0.0105-2.93 0.0143-4.39 0.00684-2.04 0.0214-4.08 0.0363-6.13 0.00683-1.16 0.0137-2.33 0.0207-3.53 0.191-3.56 0.191-3.56 3.39-3.75z"/>
<path transform="translate(242 348)" d="m0 0c3.02 1.31 5.32 2.58 7.38 5.19v3h2c1.17 3.5 1.13 6.33 1 10-0.33 0.66-0.66 1.32-1 2h-5v-2c-0.99-0.33-1.98-0.66-3-1v-2h-2c-0.577-0.619-1.16-1.24-1.75-1.88-2.7-2.55-4.63-3.33-8.25-4.12-4.95 0.206-8.36 1.62-12 5-0.821 2.84-0.783 5.16 0 8 4.34 4.71 10.1 6.11 16.1 7.56 3.01 0.725 5.93 1.46 8.88 2.44v2c0.557 0.0619 1.11 0.124 1.69 0.188 3.27 1.15 4.99 3.3 7.31 5.81 0.33 0.33 0.66 0.66 1 1 0.0724 2.02 0.0838 4.04 0.0625 6.06-0.00902 1.1-0.018 2.21-0.0273 3.35-0.0116 0.855-0.0232 1.71-0.0352 2.59h-2c-0.33 1.98-0.66 3.96-1 6h-2c-0.268 0.639-0.536 1.28-0.812 1.94-1.19 2.06-1.19 2.06-4.19 3.06v2c-8.07 4.04-18.1 4.44-26.8 2.32-2.19-0.82-2.19-0.82-5.19-2.32v-2c-0.959-0.402-0.959-0.402-1.94-0.812-2.06-1.19-2.06-1.19-3.06-4.19h-2c-2.25-4.5-2.17-8.08-2-13 2.64 0.33 5.28 0.66 8 1v2c0.639 0.248 1.28 0.495 1.94 0.75 2.06 1.25 2.06 1.25 2.81 3.38 0.124 0.928 0.124 0.928 0.25 1.88 0.581 0.131 1.16 0.263 1.76 0.398 2.14 0.575 4.02 1.34 6.05 2.23 4.07 1.54 6.92 1.58 11.2 0.375 4.26-2.62 6.03-5.45 8-10h-2c-0.175-0.62-0.351-1.24-0.531-1.88-2.23-3.22-5.33-3.35-8.97-4.06-8-1.76-14.7-4.5-21.5-9.06v-3h-2c-3.17-6.21-3.16-9.62-1.35-16.5 2.31-7.1 5.82-10.1 12.3-13.5 0.94-0.561 0.94-0.561 1.9-1.13 6.37-2.63 14.5-1.46 20.7 0.945z"/>
<path transform="translate(902 347)" d="m0 0c2.14 0.719 4.25 1.48 6.34 2.33v2c0.99 0.33 1.98 0.66 3 1v2h2v2h2c0.495 4.45 0.495 4.45 1 9-3 2-3 2-5.5 1.81-2.66-0.865-3.82-1.6-5.5-3.81v-2c-7.04-3.79-12.2-4.14-20-3-2.62 4.78-1.83 8.84-1 14 0.722 0.289 1.44 0.577 2.19 0.875 1.76 0.704 3.51 1.43 5.25 2.19 2.84 1.04 5.57 1.52 8.56 1.94v2c2.64 0.33 5.28 0.66 8 1v2c0.577 0.0825 1.15 0.165 1.75 0.25 4.01 1.34 5.97 4.33 8.25 7.75 0.195 2.7 0.195 2.7 0.125 5.69-0.018 0.994-0.0361 1.99-0.0547 3.01-0.0232 0.759-0.0464 1.52-0.0703 2.3h-2c-0.186 1.39-0.186 1.39-0.375 2.81-0.625 3.19-0.625 3.19-2.62 6.19h-2v2c-1.27 0.648-2.54 1.29-3.81 1.94-1.06 0.539-1.06 0.539-2.14 1.09-6.91 3.29-16.6 3.13-24 1.22-4.02-1.72-7.38-3.72-10.1-7.25v-2h-2v-3h-2v-9c2.81-0.803 4.69-1.07 7.56-0.438 3.2 1.89 4.46 4.34 6.44 7.44 0.99 0.33 1.98 0.66 3 1v2c6.08 1.62 12.9 1.76 19 0 0.392-1.41 0.763-2.83 1.12-4.25 0.209-0.789 0.418-1.58 0.633-2.39 0.295-2.88-0.0431-4.04-1.76-6.36-2.02-1.03-2.02-1.03-4.44-1.56-0.883-0.235-1.77-0.469-2.68-0.711-0.953-0.24-1.91-0.48-2.89-0.727-2.04-0.56-4.08-1.12-6.12-1.69-1.62-0.439-3.25-0.877-4.88-1.31v-2c-1.65-0.33-3.3-0.66-5-1v-2c-0.99-0.33-1.98-0.66-3-1v-2h-2c-2.42-7-2.2-12.9 0-20 3.32-6.26 8.59-8.62 15-11 4.35-2.18 10.1-1.49 14.7-0.328z"/>
<path transform="translate(1392,346)" d="m0 0c5.95 0.261 11.9 0.527 17.8 0.8 2.02 0.0918 4.05 0.182 6.07 0.271 2.9 0.127 5.81 0.26 8.71 0.395 1.36 0.0579 1.36 0.0579 2.75 0.117 0.841 0.04 1.68 0.0799 2.55 0.121 0.742 0.0333 1.48 0.0666 2.25 0.101 1.83 0.196 1.83 0.196 3.83 1.2 0.125 3.38 0.125 3.38 0 7-2 2-2 2-5.16 2.23-1.34-3.17e-4 -2.69-0.0116-4.03-0.0317-0.707-0.00283-1.41-0.00566-2.14-0.00858-2.26-0.0112-4.52-0.0363-6.79-0.0617-1.53-0.01-3.07-0.0192-4.6-0.0273-3.76-0.0204-7.52-0.0595-11.3-0.0977 0.33 6.27 0.66 12.5 1 19h31v9c-2.75 1.38-4.95 1.09-8.03 1.06-1.2-0.00773-2.41-0.0155-3.64-0.0234-2.55-0.026-5.1-0.0521-7.65-0.0781-1.2-0.00773-2.41-0.0155-3.64-0.0234-1.11-0.0116-2.22-0.0232-3.36-0.0352-2.65-0.0882-2.65-0.0882-4.67 1.1-0.33 5.61-0.66 11.2-1 17 2.2-0.0232 4.41-0.0464 6.68-0.0703 2.13-0.0156 4.27-0.0277 6.4-0.0396 1.48-0.0101 2.97-0.0237 4.45-0.041 2.13-0.0243 4.26-0.0356 6.4-0.0444 1.92-0.0157 1.92-0.0157 3.89-0.0317 3.19 0.227 3.19 0.227 6.19 2.23 0.408 2.71 0.133 5.24 0 8-2.68 0.894-4.34 1.15-7.1 1.21-1.23 0.0299-1.23 0.0299-2.49 0.0604-0.881 0.0167-1.76 0.0334-2.67 0.0506-0.906 0.0208-1.81 0.0416-2.74 0.063-2.89 0.0654-5.79 0.124-8.68 0.183-1.96 0.0432-3.92 0.0868-5.88 0.131-4.81 0.107-9.62 0.208-14.4 0.307-1.39-2.78-1.22-5.14-1.32-8.25-0.0421-1.3-0.0843-2.6-0.128-3.94-0.0401-1.42-0.0795-2.83-0.118-4.25-0.0205-0.712-0.041-1.42-0.0622-2.16-0.288-10.1-0.499-20.2-0.563-30.3-0.013-1.08-0.0259-2.16-0.0393-3.27-0.00121-1.02-0.00242-2.05-0.00366-3.1-0.00411-0.875-0.00822-1.75-0.0125-2.65 0.348-4.45 1.3-8.75 2.24-13.1z"/>
<path transform="translate(638,347)" d="m0 0c4.75 0.119 9.5 0.243 14.3 0.372 1.61 0.0432 3.23 0.0849 4.84 0.125 2.33 0.058 4.65 0.122 6.98 0.186 0.718 0.0167 1.44 0.0334 2.18 0.0506 3.69 0.108 7.16 0.405 10.8 1.27v2c0.593 0.115 1.19 0.229 1.8 0.348 3.25 0.962 4.85 2.36 6.99 4.96 1.75 3.9 1.81 7.52 1.84 11.8 0.016 1.17 0.016 1.17 0.0322 2.36-0.127 5.25-1.13 8.46-4.66 12.6-0.99 0.33-1.98 0.66-3 1v2h-3v2c-2.6 0.513-5.21 1.01-7.81 1.5-0.719 0.143-1.44 0.286-2.18 0.434-6.03 1.12-11.9 1.22-18 1.07-0.0251 0.722-0.0501 1.44-0.0759 2.19-0.116 3.25-0.238 6.5-0.362 9.75-0.0393 1.14-0.0786 2.27-0.119 3.44-0.0419 1.08-0.0838 2.16-0.127 3.27-0.055 1.5-0.055 1.5-0.111 3.03-0.205 2.32-0.205 2.32-1.21 3.32-1.52 0.0718-3.04 0.0839-4.56 0.0625-1.24-0.0135-1.24-0.0135-2.5-0.0273-0.957-0.0174-0.957-0.0174-1.93-0.0352-3.6-7.19-2.16-18.3-2.17-26.2-0.00333-1.11-0.00666-2.21-0.0101-3.35-0.00502-2.31-0.00741-4.62-0.00725-6.94-0.00221-3.54-0.0205-7.09-0.0393-10.6-0.00293-2.26-0.00492-4.51-0.00586-6.77-0.00719-1.06-0.0144-2.11-0.0218-3.2 0.00308-0.982 0.00615-1.96 0.00932-2.98-0.00143-0.861-0.00285-1.72-0.00432-2.61 0.267-2.52 0.978-4.16 2.25-6.34zm10 11c-0.101 2.95-0.139 5.87-0.125 8.81-0.00387 0.82-0.00773 1.64-0.0117 2.49 0.00129 0.795 0.00258 1.59 0.00391 2.41 0.00113 0.727 0.00226 1.45 0.00342 2.2 0.132 2.14 0.545 4.03 1.13 6.09 3.04 0.0813 6.08 0.141 9.12 0.188 1.28 0.0377 1.28 0.0377 2.59 0.0762 5.19 0.0599 8.83-0.287 13.3-3.26 2.69-4.04 2.55-7.26 2-12-1.62-3.63-2.66-4.77-6-7-4.61-1.05-9.09-1.13-13.8-1.12-0.68-0.00387-1.36-0.00773-2.06-0.0117-3.35-0.284-3.35-0.284-6.13 1.14z"/>
<path transform="translate(1054,348)" d="m0 0v7h-2v2c-2.59 0.864-4.34 1.18-7.01 1.32-0.757 0.0419-1.51 0.0838-2.29 0.127-0.786 0.0393-1.57 0.0786-2.38 0.119-1.2 0.0648-1.2 0.0648-2.42 0.131-1.97 0.106-3.93 0.207-5.9 0.307-0.0228 0.699-0.0457 1.4-0.0692 2.12-0.216 6.58-0.436 13.2-0.661 19.7-0.116 3.38-0.23 6.76-0.34 10.1-0.126 3.88-0.26 7.77-0.395 11.7-0.0579 1.83-0.0579 1.83-0.117 3.7-0.04 1.12-0.0799 2.24-0.121 3.4-0.0333 0.993-0.0666 1.99-0.101 3.01-0.196 2.25-0.196 2.25-1.2 3.25-1.48 0.0982-2.96 0.13-4.44 0.125-0.803 0.00258-1.61 0.00516-2.43 0.00781-2.13-0.133-2.13-0.133-4.13-1.13v-57h-21c-2.15-3.22-2.38-4.27-2-8 2.56-2.56 3.57-2.27 7.14-2.33 1.61-0.0346 1.61-0.0346 3.25-0.07 1.16-0.0147 2.32-0.0294 3.52-0.0445 1.19-0.0217 2.38-0.0435 3.6-0.0659 2.52-0.044 5.04-0.0832 7.55-0.118 3.86-0.0542 7.72-0.124 11.6-0.197 2.44-0.0407 4.88-0.0804 7.33-0.119 1.16-0.0208 2.32-0.0415 3.51-0.0629 1.07-0.0136 2.15-0.0273 3.26-0.0413 1.42-0.0209 1.42-0.0209 2.87-0.0423 2.4 0.0957 2.4 0.0957 5.4 1.1z"/>
<path transform="translate(1125,346)" d="m0 0c9.74-0.573 9.74-0.573 14 3v2h2c2.04 2.91 3 4.4 3 8h2c0.33 1.65 0.66 3.3 1 5h2c1.32 1.76 2.44 3.6 3.59 5.47 0.467 0.505 0.933 1.01 1.41 1.53h4c0.495-1.49 0.495-1.49 1-3h2c0.262-0.712 0.523-1.42 0.793-2.16 3.01-7.09 7.42-13.7 13.2-18.8 0.33-0.33 0.66-0.66 1-1 2.33-0.0409 4.67-0.0424 7 0-0.469 5.04-1.83 7.15-5 11-1.51 2.61-2.93 5.27-4.34 7.94-2.3 4.24-4.77 8.38-7.24 12.5-1.52 2.53-1.52 2.53-2.42 5.53h-2c-0.609 6.65-1.05 13.2-0.938 19.9 0.0526 4.82-0.384 8.61-2.06 13.1-1.48-0.14-2.96-0.288-4.44-0.438-1.24-0.122-1.24-0.122-2.5-0.246-2.07-0.316-2.07-0.316-3.07-1.32-0.121-1.67-0.18-3.35-0.211-5.03-0.0284-1.04-0.0567-2.08-0.0859-3.15-0.0513-2.18-0.0958-4.36-0.133-6.55-0.195-6.62-1.05-12.1-3.57-18.3-0.392-1.01-0.784-2.02-1.19-3.06-0.268-0.639-0.536-1.28-0.812-1.94h-2c-0.536-1.11-1.07-2.23-1.62-3.38-3.01-6.02-6.57-11.7-10.1-17.4-0.547-0.895-1.09-1.79-1.66-2.71-0.503-0.815-1.01-1.63-1.52-2.47-1.1-2.03-1.1-2.03-1.1-4.03z"/>
<path transform="translate(1268,347)" d="m0 0c4.35-0.395 6.32-0.453 10 2 0.354 2.32 0.354 2.32 0.325 5.26-0.00345 1.1-0.00691 2.2-0.0105 3.33-0.0186 1.19-0.0372 2.38-0.0564 3.6-0.00662 1.22-0.0132 2.43-0.0201 3.68-0.0235 3.9-0.0672 7.79-0.113 11.7-0.035 3.9-0.0658 7.8-0.0913 11.7-0.0171 2.43-0.0403 4.86-0.07 7.29-0.00976 1.09-0.0195 2.19-0.0296 3.32-0.0113 0.969-0.0225 1.94-0.0341 2.94-0.148 2.17-0.148 2.17 1.1 3.19 2.12 0.0633 4.25 0.0592 6.37 0.0273 1.3-0.0122 2.59-0.0245 3.93-0.0371 2.07-0.0248 4.14-0.0528 6.22-0.0862 1.99-0.0302 3.99-0.0474 5.98-0.0642 1.8-0.0253 1.8-0.0253 3.63-0.051 2.87 0.211 2.87 0.211 4.87 2.21 0.125 3.62 0.125 3.62 0 7-3.88 1.29-7.7 1.39-11.8 1.61-0.857 0.0477-1.71 0.0954-2.6 0.145-1.81 0.0989-3.62 0.195-5.43 0.29-2.78 0.147-5.55 0.31-8.33 0.474-1.76 0.0941-3.51 0.187-5.27 0.279-0.833 0.0509-1.67 0.102-2.53 0.154-2.03 0.0973-4.06 0.0848-6.1 0.0527-2.75-2.75-2.25-4.3-2.26-8.15-0.0063-1.29-0.0126-2.58-0.0191-3.91 0.00358-1.42 0.00768-2.83 0.0123-4.25-0.00135-1.45-0.00329-2.89-0.0058-4.34-0.00295-3.04 0.00135-6.07 0.0107-9.11 0.0114-3.89 0.00484-7.78-0.00714-11.7-0.00723-2.99-0.00493-5.98 2.56e-4 -8.97 0.00133-1.43-3.05e-4 -2.87-0.00496-4.3-0.00508-2.01 0.00403-4.01 0.0138-6.02 0.00159-1.14 0.00318-2.28 0.00482-3.46 0.254-2.81 0.254-2.81 2.25-5.81z"/>
</svg>
